<?xml version="1.0" encoding="UTF-8"?>
<svg version="1.1" xmlns="http://www.w3.org/2000/svg" width="451" height="451">
<path d="M0 0 C2.47529249 -0.00435352 4.95058363 -0.00953879 7.4258728 -0.01548767 C13.42315446 -0.02743974 19.4203703 -0.03003732 25.41765782 -0.02768741 C30.29894377 -0.02589584 35.18021621 -0.02767174 40.06150055 -0.03191185 C40.75934843 -0.03250704 41.45719632 -0.03310223 42.17619111 -0.03371545 C43.59442447 -0.03492736 45.01265783 -0.03614149 46.43089119 -0.03735783 C59.69771607 -0.04820607 72.96451546 -0.04608393 86.23134175 -0.03997298 C98.33012776 -0.03480764 110.42883316 -0.04605402 122.52760324 -0.0650712 C134.99217775 -0.08451103 147.45671424 -0.09269479 159.92130399 -0.08894795 C166.90252668 -0.08704502 173.88368084 -0.08943401 180.86489105 -0.10366249 C187.43466393 -0.11691845 194.00430325 -0.1142334 200.57408524 -0.1012516 C202.97247244 -0.09890078 205.37087118 -0.10156625 207.76924515 -0.10987473 C237.59622233 -0.20567661 264.61803977 4.59238553 287.37988281 25.2746582 C288.32734375 26.10030273 288.32734375 26.10030273 289.29394531 26.94262695 C305.57009832 41.99249446 314.9158594 65.46217384 316.37988281 87.2746582 C316.46063993 88.3317332 316.54139706 89.38880819 316.62460136 90.47791576 C317.42100478 101.73219613 317.52192335 112.93635667 317.50927734 124.21533203 C317.51063569 126.27237987 317.51241805 128.32942747 317.5145874 130.38647461 C317.51911331 135.93055777 317.5173914 141.47462215 317.51420832 147.01870561 C317.51165577 152.86099688 317.5140306 158.70328666 317.51559448 164.545578 C317.51740937 174.36437261 317.51502942 184.18315967 317.51025391 194.00195312 C317.50482932 205.28411143 317.50656355 216.56625162 317.51208031 227.84840947 C317.51665095 237.59259946 317.51724234 247.33678405 317.51464164 257.08097476 C317.51309828 262.87473928 317.51283056 268.66849535 317.51617813 274.46225929 C317.53662157 315.84318012 317.53662157 315.84318012 316.97314453 332.15234375 C316.93965975 333.16542256 316.90617496 334.17850138 316.87167549 335.22227955 C315.72441417 362.40012461 305.54992051 386.69276182 285.37988281 405.2746582 C261.97734713 425.28541943 234.45444238 428.58393793 204.75976562 428.54931641 C202.28447314 428.55366992 199.80918199 428.55885519 197.33389282 428.56480408 C191.33661117 428.57675614 185.33939533 428.57935372 179.3421078 428.57700381 C174.46082186 428.57521225 169.57954941 428.57698815 164.69826508 428.58122826 C164.00041719 428.58182345 163.30256931 428.58241863 162.58357452 428.58303186 C161.16534116 428.58424376 159.7471078 428.5854579 158.32887444 428.58667424 C145.06204956 428.59752248 131.79525017 428.59540034 118.52842388 428.58928939 C106.42963786 428.58412404 94.33093246 428.59537043 82.23216239 428.61438761 C69.76758788 428.63382744 57.30305138 428.64201119 44.83846164 428.63826436 C37.85723894 428.63636142 30.87608479 428.63875042 23.89487457 428.6529789 C17.3251017 428.66623485 10.75546238 428.6635498 4.18568039 428.65056801 C1.78729318 428.64821719 -0.61110555 428.65088266 -3.00947952 428.65919113 C-34.8385328 428.76142353 -62.68511305 422.97443758 -86.05371094 399.8684082 C-106.15448612 378.44565961 -111.72248101 353.04498832 -111.82543945 324.54785156 C-111.83503463 322.85775014 -111.84504563 321.16765103 -111.85543823 319.47755432 C-111.88240104 314.89705029 -111.90347936 310.31653615 -111.92344022 305.73599696 C-111.94548922 300.89669851 -111.97281443 296.05742963 -111.99949646 291.21815491 C-112.04374126 283.05983833 -112.08449039 274.90151056 -112.12280273 266.74316406 C-112.17615293 255.38472764 -112.23605994 244.02633297 -112.29719841 232.66793621 C-112.33995407 224.67353538 -112.38099387 216.67912559 -112.42178988 208.68471456 C-112.43151324 206.78227946 -112.44128873 204.87984462 -112.45111966 202.97741008 C-112.55188108 183.45360511 -112.6376291 163.92979136 -112.65283191 144.40570557 C-112.65425901 142.74151996 -112.65626983 141.07733471 -112.65896523 139.41315067 C-112.78023356 57.67151315 -112.78023356 57.67151315 -86.62011719 29.2746582 C-86.07097656 28.6455957 -85.52183594 28.0165332 -84.95605469 27.3684082 C-62.67844626 3.22518725 -30.81061657 -0.03592262 0 0 Z M-6.62011719 104.2746582 C-7.44253906 105.04422852 -8.26496094 105.81379883 -9.11230469 106.60668945 C-38.12933663 134.58417041 -52.71841512 174.07772717 -53.68408203 213.91333008 C-53.80818095 244.94987866 -44.38886174 275.82714513 -26.62011719 301.2746582 C-25.95109375 302.24145508 -25.28207031 303.20825195 -24.59277344 304.2043457 C-0.19803082 337.64807832 36.33948107 360.05156434 77.12988281 366.6496582 C120.4173244 373.03778152 162.8486392 362.28810578 198.02050781 336.32543945 C216.24075256 322.00563632 230.65567274 304.76474469 241.37988281 284.2746582 C241.98574219 283.11708008 242.59160156 281.95950195 243.21582031 280.7668457 C261.43652169 244.57193512 262.27467677 202.21120005 250.07128906 164.06762695 C242.70111971 142.44473313 230.09977831 123.69633475 214.37988281 107.2746582 C213.63738281 106.46899414 212.89488281 105.66333008 212.12988281 104.83325195 C184.45692741 75.74933994 144.07022784 61.15802039 104.53515625 59.92089844 C62.71026216 59.50871382 23.56959676 75.68664933 -6.62011719 104.2746582 Z " fill="#313131" transform="translate(126.6201171875,13.725341796875)"/>
<path d="M0 0 C1.1152002 0.24145752 1.1152002 0.24145752 2.25292969 0.48779297 C33.07165179 7.48349504 61.27198811 23.19289621 84 45 C84.92941406 45.86625 85.85882813 46.7325 86.81640625 47.625 C115.74708546 75.09438955 136.61477308 117.04679082 138.12231445 157.26293945 C139.21805015 208.0408544 126.27064837 254.65528783 90.6953125 292.20703125 C89.80585938 293.12871094 88.91640625 294.05039062 88 295 C86.72769531 296.36705078 86.72769531 296.36705078 85.4296875 297.76171875 C62.92651537 321.30608242 31.60718457 336.99565719 0 344 C-0.70576172 344.16226074 -1.41152344 344.32452148 -2.13867188 344.49169922 C-27.76893149 350.11064075 -56.81128552 348.8421366 -82 342 C-83.0091748 341.72655762 -84.01834961 341.45311523 -85.05810547 341.17138672 C-106.16286472 335.22652627 -125.75101724 325.55439118 -143 312 C-143.88816406 311.33226562 -144.77632813 310.66453125 -145.69140625 309.9765625 C-171.79547713 289.66907368 -190.50908018 262.86059427 -202 232 C-202.28214355 231.2481543 -202.56428711 230.49630859 -202.85498047 229.72167969 C-218.44533944 187.18581521 -215.07707006 139.39422764 -196.73608398 98.38134766 C-176.32313874 54.63099214 -139.27169952 22.26100163 -94.23046875 5.57421875 C-90.18361405 4.20549198 -86.13874601 3.05075639 -82 2 C-81.12005371 1.77151367 -80.24010742 1.54302734 -79.33349609 1.30761719 C-53.90202257 -5.05563283 -25.67094823 -5.60265385 0 0 Z M-146 62 C-146.82242188 62.76957031 -147.64484375 63.53914063 -148.4921875 64.33203125 C-177.50921945 92.30951221 -192.09829793 131.80306897 -193.06396484 171.63867188 C-193.18806376 202.67522046 -183.76874455 233.55248693 -166 259 C-165.33097656 259.96679688 -164.66195312 260.93359375 -163.97265625 261.9296875 C-139.57791363 295.37342012 -103.04040174 317.77690614 -62.25 324.375 C-18.96255841 330.76312332 23.46875638 320.01344758 58.640625 294.05078125 C76.86086974 279.73097812 91.27578992 262.49008649 102 242 C102.60585938 240.84242188 103.21171875 239.68484375 103.8359375 238.4921875 C122.05663888 202.29727692 122.89479396 159.93654185 110.69140625 121.79296875 C103.3212369 100.17007493 90.7198955 81.42167655 75 65 C74.2575 64.19433594 73.515 63.38867188 72.75 62.55859375 C45.0770446 33.47468174 4.69034503 18.88336218 -34.84472656 17.64624023 C-76.66962065 17.23405562 -115.81028605 33.41199113 -146 62 Z " fill="#FCFAF8" transform="translate(266,56)"/>
<path d="M0 0 C1.04994141 -0.02900391 1.04994141 -0.02900391 2.12109375 -0.05859375 C11.01556529 1.74876287 16.83628429 9.39889968 22.875 15.625 C24.3742972 17.15941631 25.87576495 18.69162166 27.37992859 20.2212677 C28.73328464 21.59924423 30.08031496 22.98342504 31.42700195 24.36791992 C33.38681258 26.47520603 33.38681258 26.47520603 35.5625 27.4375 C35.5625 28.0975 35.5625 28.7575 35.5625 29.4375 C36.14515625 29.69708496 36.7278125 29.95666992 37.328125 30.22412109 C41.35924897 32.41322578 44.33792054 35.84376217 47.5625 39.0625 C48.2740625 39.74957031 48.985625 40.43664062 49.71875 41.14453125 C54.95323205 46.34971583 59.5567285 51.80325751 60.125 59.4375 C59.38128041 68.7453562 50.9497672 75.46259783 44.73046875 81.59765625 C43.76970245 82.55535563 42.80953398 83.51365509 41.84992981 84.47251892 C39.84646344 86.47140913 37.83822852 88.46532659 35.82592773 90.45532227 C33.2674812 92.98552786 30.71774973 95.52428841 28.17115307 98.06641483 C25.7148903 100.51748054 23.25399571 102.96387587 20.79296875 105.41015625 C19.88749802 106.31137711 18.98202728 107.21259796 18.04911804 108.14112854 C13.62574857 112.51532053 9.14187306 116.74311602 4.42652893 120.80006409 C1.30445042 123.54261995 -1.63002977 126.46755005 -4.5703125 129.40234375 C-5.53081009 130.35784874 -5.53081009 130.35784874 -6.51071167 131.33265686 C-7.85137734 132.66830288 -9.19073137 134.00526668 -10.52880859 135.34350586 C-12.55937727 137.37188064 -14.59782924 139.39210301 -16.63671875 141.41210938 C-17.94840647 142.72086345 -19.2596205 144.03009249 -20.5703125 145.33984375 C-21.17046173 145.93280746 -21.77061096 146.52577118 -22.38894653 147.13670349 C-25.99088655 150.75793815 -29.11238985 154.51241053 -32.06735229 158.68067932 C-33.42263252 160.41843673 -34.78080257 161.69311256 -36.5 163.0625 C-39.68004969 165.63360401 -41.86667737 168.27274364 -44.4375 171.4375 C-43.70722595 171.44114563 -42.9769519 171.44479126 -42.22454834 171.44854736 C-35.33839183 171.48643267 -28.45262443 171.54329136 -21.56681442 171.62140274 C-18.02678335 171.66089255 -14.48700156 171.69307317 -10.94677734 171.70849609 C-6.87557057 171.72655371 -2.80529546 171.77649725 1.265625 171.828125 C3.17048676 171.82996796 3.17048676 171.82996796 5.11383057 171.83184814 C6.29475281 171.85156677 7.47567505 171.8712854 8.69238281 171.89160156 C9.73162903 171.90048401 10.77087524 171.90936646 11.84161377 171.91851807 C15.25254131 172.5691185 16.44949179 173.73202619 18.5625 176.4375 C19.03602187 179.21098526 19.04398098 180.66039517 17.55438232 183.06459045 C14.38594805 185.24844118 10.97091374 184.86243482 7.25488281 184.84155273 C6.40737457 184.84841599 5.55986633 184.85527924 4.68667603 184.86235046 C1.87948943 184.88067964 -0.92714127 184.87677089 -3.734375 184.87109375 C-5.6863015 184.87565401 -7.63822638 184.88095912 -9.59014893 184.88697815 C-13.68581655 184.89592231 -17.78128936 184.89347293 -21.87695312 184.88354492 C-27.11712081 184.87207869 -32.3566123 184.89222409 -37.59669113 184.92146206 C-41.63055679 184.93984438 -45.66426122 184.9395271 -49.69815826 184.93382454 C-51.62939652 184.93367144 -53.56064579 184.93970646 -55.49184418 184.95211601 C-58.19908961 184.96705508 -60.905097 184.95632625 -63.61230469 184.93920898 C-64.80178207 184.95371094 -64.80178207 184.95371094 -66.01528931 184.96850586 C-73.33773042 184.87194326 -78.1846257 182.10007836 -83.34985352 176.84985352 C-84.03068497 176.16556778 -84.71151642 175.48128204 -85.41297913 174.77626038 C-86.12361008 174.04700851 -86.83424103 173.31775665 -87.56640625 172.56640625 C-88.6954966 171.42739113 -88.6954966 171.42739113 -89.84739685 170.2653656 C-92.23885517 167.85062165 -94.61988404 165.42591987 -97 163 C-99.38539109 160.57941264 -101.77296012 158.16103195 -104.16331482 155.74534607 C-105.64581159 154.24602814 -107.125201 152.7436292 -108.60096741 151.23768616 C-112.39074208 147.3933386 -116.25349238 143.84609911 -120.4375 140.4375 C-124.02130421 136.39650266 -126.79593741 132.38713365 -127.0625 126.875 C-126.23031208 116.64085916 -118.74297735 109.19697677 -111.42578125 102.6328125 C-110.13113785 101.53512297 -108.83422072 100.44011007 -107.53515625 99.34765625 C-104.98449435 97.02498648 -102.73237395 94.5126639 -100.4375 91.9375 C-96.93105621 88.00684632 -93.35816517 84.4535694 -89.32421875 81.07421875 C-86.67942851 78.7798769 -84.2862864 76.265867 -81.8828125 73.72265625 C-80.4375 72.4375 -80.4375 72.4375 -78.4375 72.4375 C-78.210625 71.880625 -77.98375 71.32375 -77.75 70.75 C-75.14716443 66.16405161 -70.902582 62.96370427 -66.99511719 59.50732422 C-61.50650628 54.57144714 -56.2984578 49.38638466 -51.11859894 44.13263321 C-49.47277321 42.46437669 -47.82266638 40.80046159 -46.17132568 39.13766479 C-41.48462997 34.41773332 -36.80249605 29.69334231 -32.13037109 24.95898438 C-29.25294386 22.04383836 -26.36818799 19.13611776 -23.47866058 16.23296738 C-22.38668679 15.13297561 -21.29748879 14.03022063 -20.21121979 12.92459488 C-18.69490126 11.38168529 -17.16941588 9.84840989 -15.64160156 8.31689453 C-14.77907776 7.44469269 -13.91655396 6.57249084 -13.02789307 5.67385864 C-9.14868023 2.32482592 -5.20372393 0.00954812 0 0 Z " fill="#D87D3E" transform="translate(252.4375,135.5625)"/>
<path d="M0 0 C0.66 0 1.32 0 2 0 C2 0.66 2 1.32 2 2 C2.80222237 2.31670151 2.80222237 2.31670151 3.62065125 2.63980103 C6.91447631 4.52277739 9.40547141 7.10225069 12.06958008 9.76318359 C12.66673828 10.35201828 13.26389648 10.94085297 13.87915039 11.54753113 C15.84808091 13.4923965 17.80929581 15.44481095 19.76953125 17.3984375 C21.13376795 18.75370916 22.49808279 20.10890218 23.86247253 21.46401978 C26.71828094 24.30334788 29.56967421 27.14703237 32.41870117 29.99316406 C36.07687489 33.64593804 39.75094996 37.28226232 43.42914295 40.91486168 C46.25045506 43.70650035 49.06051531 46.50925684 51.86752892 49.31526566 C53.21790113 50.66142055 54.57241173 52.00343693 55.93103981 53.341259 C57.82513229 55.20862459 59.70292123 57.09099556 61.57739258 58.97802734 C62.14509872 59.5308992 62.71280487 60.08377106 63.29771423 60.65339661 C64.83137512 62.21664429 64.83137512 62.21664429 67 65 C66.87794973 68.29666618 65.41165635 70.02513608 63.25 72.4375 C62.71117187 73.04078125 62.17234375 73.6440625 61.6171875 74.265625 C59.46773804 76.57083167 57.25812886 78.80129558 55 81 C53.66545399 82.33211956 52.33192761 83.66526242 51 85 C51.73027405 85.00364563 52.4605481 85.00729126 53.21295166 85.01104736 C60.09910817 85.04893267 66.98487557 85.10579136 73.87068558 85.18390274 C77.41071665 85.22339255 80.95049844 85.25557317 84.49072266 85.27099609 C88.56192943 85.28905371 92.63220454 85.33899725 96.703125 85.390625 C98.60798676 85.39246796 98.60798676 85.39246796 100.55133057 85.39434814 C101.73225281 85.41406677 102.91317505 85.4337854 104.12988281 85.45410156 C105.16912903 85.46298401 106.20837524 85.47186646 107.27911377 85.48101807 C110.69004131 86.1316185 111.88699179 87.29452619 114 90 C114.47352187 92.77348526 114.48148098 94.22289517 112.99188232 96.62709045 C109.82344805 98.81094118 106.40841374 98.42493482 102.69238281 98.40405273 C101.42112045 98.41434761 101.42112045 98.41434761 100.12417603 98.42485046 C97.31698943 98.44317964 94.51035873 98.43927089 91.703125 98.43359375 C89.7511985 98.43815401 87.79927362 98.44345912 85.84735107 98.44947815 C81.75168345 98.45842231 77.65621064 98.45597293 73.56054688 98.44604492 C68.32037919 98.43457869 63.0808877 98.45472409 57.84080887 98.48396206 C53.80694321 98.50234438 49.77323878 98.5020271 45.73934174 98.49632454 C43.80810348 98.49617144 41.87685421 98.50220646 39.94565582 98.51461601 C37.23841039 98.52955508 34.532403 98.51882625 31.82519531 98.50170898 C31.03221039 98.51137695 30.23922546 98.52104492 29.42221069 98.53100586 C22.09976958 98.43444326 17.2528743 95.66257836 12.08764648 90.41235352 C11.40681503 89.72806778 10.72598358 89.04378204 10.02452087 88.33876038 C9.31388992 87.60950851 8.60325897 86.88025665 7.87109375 86.12890625 C6.7420034 84.98989113 6.7420034 84.98989113 5.59010315 83.8278656 C3.19864483 81.41312165 0.81761596 78.98841987 -1.5625 76.5625 C-3.94789109 74.14191264 -6.33546012 71.72353195 -8.72581482 69.30784607 C-10.20831159 67.80852814 -11.687701 66.3061292 -13.16346741 64.80018616 C-16.95324208 60.9558386 -20.81599238 57.40859911 -25 54 C-28.58380421 49.95900266 -31.35843741 45.94963365 -31.625 40.4375 C-30.79281208 30.20335916 -23.30547735 22.75947677 -15.98828125 16.1953125 C-14.70267508 15.10528536 -13.41359018 14.01934812 -12.12109375 12.9375 C-8.48961157 9.620345 -5.32496941 5.86757318 -2.1015625 2.16015625 C-1.40804687 1.44730469 -0.71453125 0.73445312 0 0 Z " fill="#FEFDFC" transform="translate(157,222)"/>
<path d="M0 0 C2.65165723 2.25594269 5.23441155 4.55605551 7.77734375 6.93359375 C9.77538666 8.7911767 11.83127197 10.51821251 13.9375 12.25 C41.1261835 36.10164186 57.80364807 74.58081277 61 110 C63.46021612 147.86361525 54.63848549 191.15719561 29.140625 220.59375 C28.43421875 221.3878125 27.7278125 222.181875 27 223 C26.09547485 224.09087094 25.19471057 225.18486665 24.296875 226.28125 C-1.31465106 257.31789866 -39.66065915 279.57592055 -80.10595703 283.79345703 C-86.45966139 284.2469102 -92.82039243 284.29283595 -99.1875 284.3125 C-100.19435852 284.31814972 -100.19435852 284.31814972 -101.22155762 284.32391357 C-146.0858167 284.45148577 -185.3179754 266.14485904 -217 235 C-244.03980359 208.04841763 -260.93169186 168.210067 -261.38037109 130.0402832 C-261.37859863 128.74823975 -261.37682617 127.45619629 -261.375 126.125 C-261.37445618 125.44980316 -261.37391235 124.77460632 -261.37335205 124.07894897 C-261.32788511 111.71721549 -260.01019085 100.00334068 -257 88 C-256.80164551 87.17564453 -256.60329102 86.35128906 -256.39892578 85.50195312 C-250.48599127 61.54915875 -238.66657566 36.74750758 -220.59912109 19.58105469 C-218.89292354 17.89413326 -217.38858819 16.11029991 -215.875 14.25 C-208.32583381 5.51332453 -198.65502872 -1.76006878 -189 -8 C-187.40865234 -9.04414062 -187.40865234 -9.04414062 -185.78515625 -10.109375 C-170.18764228 -20.06283787 -153.01193138 -26.9030238 -135 -31 C-133.99646484 -31.24339111 -133.99646484 -31.24339111 -132.97265625 -31.49169922 C-87.74179244 -42.17120873 -36.03616315 -28.59142983 0 0 Z M-209 15 C-209.82242188 15.76957031 -210.64484375 16.53914063 -211.4921875 17.33203125 C-240.50921945 45.30951221 -255.09829793 84.80306897 -256.06396484 124.63867188 C-256.18806376 155.67522046 -246.76874455 186.55248693 -229 212 C-228.33097656 212.96679688 -227.66195312 213.93359375 -226.97265625 214.9296875 C-202.57791363 248.37342012 -166.04040174 270.77690614 -125.25 277.375 C-81.96255841 283.76312332 -39.53124362 273.01344758 -4.359375 247.05078125 C13.86086974 232.73097812 28.27578992 215.49008649 39 195 C39.60585938 193.84242188 40.21171875 192.68484375 40.8359375 191.4921875 C59.05663888 155.29727692 59.89479396 112.93654185 47.69140625 74.79296875 C40.3212369 53.17007493 27.7198955 34.42167655 12 18 C11.2575 17.19433594 10.515 16.38867188 9.75 15.55859375 C-17.9229554 -13.52531826 -58.30965497 -28.11663782 -97.84472656 -29.35375977 C-139.66962065 -29.76594438 -178.81028605 -13.58800887 -209 15 Z " fill="#E58449" transform="translate(329,103)"/>
<path d="M0 0 C1.22814926 -0.01283524 2.45629852 -0.02567047 3.72166443 -0.03889465 C5.06321815 -0.04706083 6.40477642 -0.05450479 7.74633789 -0.0612793 C8.76075046 -0.06739259 8.76075046 -0.06739259 9.7956562 -0.07362938 C13.37288226 -0.09446363 16.95007021 -0.1087786 20.52734375 -0.11816406 C24.22083884 -0.12924343 27.91373393 -0.16366732 31.60701656 -0.20333576 C34.44919455 -0.22947573 37.29122868 -0.23785332 40.13351631 -0.24144554 C41.49509308 -0.24631574 42.85666325 -0.25794228 44.21812248 -0.27648354 C46.12313203 -0.30082168 48.02843411 -0.2974954 49.93359375 -0.29296875 C51.01708603 -0.29883499 52.10057831 -0.30470123 53.21690369 -0.31074524 C56.71275129 0.29505865 57.88770592 1.40220036 60.03149414 4.17700195 C60.5099147 6.97917951 60.53066273 8.41200707 58.96720886 10.80805969 C56.03794619 12.87964153 53.07796974 12.57012799 49.62255859 12.51757812 C48.87109558 12.5180162 48.11963257 12.51845428 47.34539795 12.51890564 C44.86159277 12.51681563 42.37846264 12.49347521 39.89477539 12.4699707 C38.17270781 12.46437549 36.45063546 12.46010504 34.7285614 12.45710754 C30.19598202 12.44565286 25.66369102 12.4161804 21.13122559 12.38299561 C16.50622458 12.35230811 11.88117698 12.33860504 7.25610352 12.32348633 C-1.81889298 12.29131124 -10.89367544 12.2401074 -19.96850586 12.17700195 C-19.96850586 11.51700195 -19.96850586 10.85700195 -19.96850586 10.17700195 C-17.97566448 8.83299265 -15.97430915 7.50158903 -13.96850586 6.17700195 C-13.08163086 5.29012695 -12.19475586 4.40325195 -11.28100586 3.48950195 C-7.72700085 -0.06450305 -4.82104914 0.04383445 0 0 Z " fill="#D87C3E" transform="translate(210.968505859375,307.822998046875)"/>
<path d="M0 0 C-1.32 0.66 -2.64 1.32 -4 2 C-1.69 2.33 0.62 2.66 3 3 C3 3.33 3 3.66 3 4 C-0.0202423 4.64870339 -3.04113979 5.29404156 -6.0625 5.9375 C-6.91005859 6.11990234 -7.75761719 6.30230469 -8.63085938 6.49023438 C-9.46552734 6.66748047 -10.30019531 6.84472656 -11.16015625 7.02734375 C-11.91949463 7.18968506 -12.67883301 7.35202637 -13.46118164 7.51928711 C-21.12762474 8.97089077 -28.60387182 9.18619855 -36.37597656 9.18530273 C-38.4670115 9.18746587 -40.55749719 9.20559634 -42.6484375 9.22460938 C-53.62877587 9.2701286 -64.22957278 8.25312677 -75 6 C-75 5.67 -75 5.34 -75 5 C-66.42857143 4.85714286 -66.42857143 4.85714286 -63 6 C-63.79299706 3.82961523 -63.79299706 3.82961523 -65.84765625 3.3671875 C-66.57855469 3.20476562 -67.30945313 3.04234375 -68.0625 2.875 C-68.79597656 2.70742188 -69.52945313 2.53984375 -70.28515625 2.3671875 C-70.85105469 2.24601562 -71.41695312 2.12484375 -72 2 C-72 1.67 -72 1.34 -72 1 C-69.79142945 1.14219564 -67.58315013 1.28891847 -65.375 1.4375 C-64.14523438 1.51871094 -62.91546875 1.59992188 -61.6484375 1.68359375 C-58 2 -58 2 -55.19921875 2.51953125 C-38.85182349 4.97463457 -21.13634707 2.99197123 -5.1015625 -0.66015625 C-3 -1 -3 -1 0 0 Z " fill="#E78C53" transform="translate(269,378)"/>
<path d="M0 0 C1.43879577 0.01006151 2.87759845 0.01918169 4.31640625 0.02734375 C7.79441753 0.0490794 11.27216245 0.08342967 14.75 0.125 C14.75 0.455 14.75 0.785 14.75 1.125 C-2.575 1.62 -2.575 1.62 -20.25 2.125 C-19.755 3.115 -19.755 3.115 -19.25 4.125 C-16.66394668 4.5933265 -16.66394668 4.5933265 -13.6875 4.75 C-12.67558594 4.82476562 -11.66367188 4.89953125 -10.62109375 4.9765625 C-9.44740234 5.05003906 -9.44740234 5.05003906 -8.25 5.125 C-8.25 5.455 -8.25 5.785 -8.25 6.125 C-8.85247559 6.18969482 -9.45495117 6.25438965 -10.07568359 6.32104492 C-21.57642582 7.59247828 -32.6917454 9.09078159 -43.75146484 12.58666992 C-48.97622324 14.21625892 -48.97622324 14.21625892 -52.25 13.125 C-50.93 12.795 -49.61 12.465 -48.25 12.125 C-48.25 11.465 -48.25 10.805 -48.25 10.125 C-46.27 10.125 -44.29 10.125 -42.25 10.125 C-42.25 9.465 -42.25 8.805 -42.25 8.125 C-43.9 8.125 -45.55 8.125 -47.25 8.125 C-43.87741306 5.87660871 -40.68810542 5.06011309 -36.8125 4.125 C-36.16345703 3.96 -35.51441406 3.795 -34.84570312 3.625 C-32.65422527 3.08504011 -30.4573823 2.59584176 -28.25 2.125 C-27.37875488 1.93824707 -26.50750977 1.75149414 -25.60986328 1.55908203 C-17.05755315 -0.07828581 -8.66169717 -0.10673563 0 0 Z " fill="#E18F5D" transform="translate(228.25,68.875)"/>
<path d="M0 0 C1.22814926 -0.0127597 2.45629852 -0.02551941 3.72166443 -0.03866577 C5.06322065 -0.0417231 6.40477898 -0.04395104 7.74633789 -0.04541016 C9.12252441 -0.05183746 10.49870955 -0.05856577 11.87489319 -0.06558228 C14.7590756 -0.07755558 17.64313823 -0.08126302 20.52734375 -0.08007812 C24.22088494 -0.07987483 27.91365757 -0.1071861 31.60701656 -0.14162254 C34.44921895 -0.16387285 37.29123575 -0.16791628 40.13351631 -0.16685867 C41.49507867 -0.16921712 42.85664596 -0.17805451 44.21812248 -0.19352341 C46.12317864 -0.21314309 48.02846036 -0.20483314 49.93359375 -0.1953125 C51.55883217 -0.19958755 51.55883217 -0.19958755 53.21690369 -0.20394897 C56.70920035 0.40958895 57.88816729 1.51761425 60.03149414 4.29052734 C60.5099147 7.0927049 60.53066273 8.52553246 58.96720886 10.92158508 C56.03794619 12.99316692 53.07796974 12.68365338 49.62255859 12.63110352 C48.87109558 12.6315416 48.11963257 12.63197968 47.34539795 12.63243103 C44.86159277 12.63034102 42.37846264 12.6070006 39.89477539 12.58349609 C38.17270781 12.57790088 36.45063546 12.57363043 34.7285614 12.57063293 C30.19598202 12.55917825 25.66369102 12.52970579 21.13122559 12.496521 C16.50622458 12.4658335 11.88117698 12.45213043 7.25610352 12.43701172 C-1.81889298 12.40483663 -10.89367544 12.35363279 -19.96850586 12.29052734 C-19.96850586 11.63052734 -19.96850586 10.97052734 -19.96850586 10.29052734 C-18.64850586 9.96052734 -17.32850586 9.63052734 -15.96850586 9.29052734 C-15.96850586 9.62052734 -15.96850586 9.95052734 -15.96850586 10.29052734 C7.79149414 10.29052734 31.55149414 10.29052734 56.03149414 10.29052734 C56.69149414 7.98052734 57.35149414 5.67052734 58.03149414 3.29052734 C54.21487832 2.39844728 50.68804173 2.16902725 46.77246094 2.17700195 C45.53155197 2.17707748 44.29064301 2.17715302 43.01213074 2.17723083 C41.66832438 2.18233663 40.32451843 2.18755261 38.98071289 2.19287109 C37.59780427 2.19473769 36.21489499 2.19616045 34.83198547 2.19715881 C31.20374709 2.20096497 27.57554914 2.21077892 23.94732666 2.22186279 C20.24036201 2.23211789 16.53339078 2.2366652 12.82641602 2.24169922 C5.56142368 2.25240299 -1.70353541 2.26945644 -8.96850586 2.29052734 C-5.4916678 -0.0273647 -4.10656514 0.02891557 0 0 Z " fill="#C78656" transform="translate(210.968505859375,307.70947265625)"/>
<path d="M0 0 C0.33 0.99 0.66 1.98 1 3 C1.66 3 2.32 3 3 3 C2.67 3.99 2.34 4.98 2 6 C0.02 6.33 -1.96 6.66 -4 7 C-4.33 7.99 -4.66 8.98 -5 10 C-5.66 10 -6.32 10 -7 10 C-7 11.32 -7 12.64 -7 14 C-7.66 14 -8.32 14 -9 14 C-8.67 14.99 -8.34 15.98 -8 17 C-8.78375 17.763125 -9.5675 18.52625 -10.375 19.3125 C-13.07257717 21.90891805 -13.07257717 21.90891805 -15 25 C-14.67 25.66 -14.34 26.32 -14 27 C-14.66 27.99 -15.32 28.98 -16 30 C-17.98 28.35 -19.96 26.7 -22 25 C-21.42235562 21.86915901 -20.59969956 20.22256994 -18.34765625 17.984375 C-17.81849609 17.45585937 -17.28933594 16.92734375 -16.74414062 16.3828125 C-16.18919922 15.84398437 -15.63425781 15.30515625 -15.0625 14.75 C-14.51142578 14.19570312 -13.96035156 13.64140625 -13.39257812 13.0703125 C-9.26712592 9 -9.26712592 9 -7 9 C-6.773125 8.443125 -6.54625 7.88625 -6.3125 7.3125 C-4.64103234 4.36753316 -2.44723648 2.31843456 0 0 Z " fill="#D57C3F" transform="translate(181,199)"/>
<path d="M0 0 C0.33 0 0.66 0 1 0 C1.33 8.58 1.66 17.16 2 26 C1.67 26 1.34 26 1 26 C0.67 30.62 0.34 35.24 0 40 C-0.99 39.67 -1.98 39.34 -3 39 C-3 30.42 -3 21.84 -3 13 C-2.34 13 -1.68 13 -1 13 C-1.01160156 12.14535156 -1.02320312 11.29070312 -1.03515625 10.41015625 C-1.04417969 9.30542969 -1.05320312 8.20070312 -1.0625 7.0625 C-1.07410156 5.96035156 -1.08570312 4.85820312 -1.09765625 3.72265625 C-1 1 -1 1 0 0 Z " fill="#F07C39" transform="translate(72,203)"/>
<path d="M0 0 C1.35179818 2.70359636 0.64994418 3.64135377 -0.25 6.5 C-6.70248536 29.69326537 -7.68732347 54.9168745 -1.77734375 78.32421875 C-1.05402606 81.74453002 -1.02431375 82.85149043 -2 86 C-4.51704722 80.96590555 -5.42790256 76.75189594 -5.7890625 71.13671875 C-5.87657712 68.94919642 -5.87657712 68.94919642 -7 67 C-7.11167813 63.94677634 -7.16413494 60.91709641 -7.16796875 57.86328125 C-7.17129715 56.95047897 -7.17462555 56.0376767 -7.17805481 55.09721375 C-7.1831247 53.16124984 -7.18546312 51.22527718 -7.18530273 49.28930664 C-7.18747837 46.34181042 -7.20560326 43.39469504 -7.22460938 40.44726562 C-7.22754554 38.56510544 -7.22952884 36.68294349 -7.23046875 34.80078125 C-7.23765427 33.92448563 -7.24483978 33.04819 -7.25224304 32.14533997 C-7.23332878 27.0188322 -6.60880572 22.86652162 -5 18 C-4.65682244 15.98414961 -4.34271613 13.96306228 -4.0625 11.9375 C-3.34657504 7.37276249 -2.40304857 3.93226129 0 0 Z " fill="#FDEAD5" transform="translate(74,182)"/>
<path d="M0 0 C3.21764451 4.82646677 4.36261136 10.19821824 4 16 C4.66 16 5.32 16 6 16 C5.67 11.05 5.34 6.1 5 1 C9.5561766 7.8342649 9.36843607 16.16259344 8 24 C7.67 24.66 7.34 25.32 7 26 C6.77049681 28.204364 6.58924067 30.41392173 6.4375 32.625 C6.35371094 33.81351563 6.26992188 35.00203125 6.18359375 36.2265625 C6.09271484 37.59941406 6.09271484 37.59941406 6 39 C5.67 39 5.34 39 5 39 C4.95512451 38.43716309 4.91024902 37.87432617 4.86401367 37.29443359 C4.01609241 26.93142083 3.06330478 16.83280417 0.5859375 6.71484375 C0 4 0 4 0 0 Z " fill="#E48F58" transform="translate(379,185)"/>
<path d="M0 0 C0.33 0 0.66 0 1 0 C0.38487182 5.00890086 -0.2717552 10.00632136 -1 15 C-0.34 15 0.32 15 1 15 C0.67 17.97 0.34 20.94 0 24 C-0.66 22.68 -1.32 21.36 -2 20 C-2.33 23.96 -2.66 27.92 -3 32 C-3.66 32 -4.32 32 -5 32 C-5 41.24 -5 50.48 -5 60 C-5.33 60 -5.66 60 -6 60 C-6.52611989 39.30729984 -5.9700926 20.00787789 0 0 Z " fill="#E9915A" transform="translate(74,184)"/>
<path d="M0 0 C13.53 0 27.06 0 41 0 C40.67 0.66 40.34 1.32 40 2 C27.13 2.33 14.26 2.66 1 3 C0.67 2.01 0.34 1.02 0 0 Z " fill="#F27E37" transform="translate(208,71)"/>
<path d="M0 0 C13.53 0 27.06 0 41 0 C40.67 0.66 40.34 1.32 40 2 C26.57893043 2.7413191 13.39951589 3.28083608 0 2 C0 1.34 0 0.68 0 0 Z " fill="#F07E37" transform="translate(208,383)"/>
<path d="M0 0 C2.20857055 0.14219564 4.41684987 0.28891847 6.625 0.4375 C7.85476562 0.51871094 9.08453125 0.59992188 10.3515625 0.68359375 C14 1 14 1 16.8125 1.5 C21.31910137 2.20691786 25.82140701 2.36437648 30.375 2.5625 C31.30183594 2.60568359 32.22867188 2.64886719 33.18359375 2.69335938 C35.45560294 2.79876186 37.72770925 2.90088606 40 3 C40 3.33 40 3.66 40 4 C30.43 4 20.86 4 11 4 C11 4.66 11 5.32 11 6 C1.58997722 6.18451025 1.58997722 6.18451025 -3 5 C-3 4.67 -3 4.34 -3 4 C5.57142857 3.85714286 5.57142857 3.85714286 9 5 C8.20700294 2.82961523 8.20700294 2.82961523 6.15234375 2.3671875 C5.05599609 2.12355469 5.05599609 2.12355469 3.9375 1.875 C3.20402344 1.70742188 2.47054687 1.53984375 1.71484375 1.3671875 C1.14894531 1.24601562 0.58304688 1.12484375 0 1 C0 0.67 0 0.34 0 0 Z " fill="#F0A26D" transform="translate(197,379)"/>
<path d="M0 0 C0.33 0 0.66 0 1 0 C2.14516104 9.01814321 2.09471858 17.9280648 2 27 C1.34 27.33 0.68 27.66 0 28 C-3.33114213 19.2557519 -3.33114213 8.7442481 0 0 Z " fill="#EE7E3D" transform="translate(387,204)"/>
<path d="M0 0 C0 0.66 0 1.32 0 2 C-0.99 2 -1.98 2 -3 2 C-3 2.99 -3 3.98 -3 5 C-3.69762451 5.20866699 -4.39524902 5.41733398 -5.11401367 5.63232422 C-8.83126804 7.3939399 -11.34781061 9.97418808 -14.17578125 12.8828125 C-14.74580368 13.45707977 -15.31582611 14.03134705 -15.90312195 14.62301636 C-17.71344057 16.45006253 -19.51301983 18.28728418 -21.3125 20.125 C-22.54162241 21.36917685 -23.77143287 22.61267438 -25.00195312 23.85546875 C-28.00932866 26.89583493 -31.00711883 29.9453675 -34 33 C-34.66 32.67 -35.32 32.34 -36 32 C-31.80720569 27.75774441 -27.60786689 23.52211785 -23.40234375 19.29248047 C-21.97279274 17.8528759 -20.54504243 16.41148085 -19.11914062 14.96826172 C-17.06852169 12.89336666 -15.01149982 10.8250101 -12.953125 8.7578125 C-12.31755676 8.11192169 -11.68198853 7.46603088 -11.02716064 6.80056763 C-10.42684021 6.20009613 -9.82651978 5.59962463 -9.20800781 4.98095703 C-8.68394348 4.45245148 -8.15987915 3.92394592 -7.61993408 3.37942505 C-5.26340095 1.37276264 -3.13811468 0 0 0 Z " fill="#C38355" transform="translate(248,137)"/>
<path d="M0 0 C2.0625 0.4375 2.0625 0.4375 4 1 C3.01 1.33 2.02 1.66 1 2 C1 2.99 1 3.98 1 5 C-5.08356979 8.09212176 -10.18012971 9.56699236 -17 10 C-13.93745875 6.52219892 -11.11498955 4.97375358 -6.8125 3.3125 C-3.1362404 2.1013057 -3.1362404 2.1013057 0 0 Z " fill="#EC8444" transform="translate(302,365)"/>
<path d="M0 0 C2.63276353 2.63276353 2.29844863 3.89509158 2.3125 7.5625 C2.2377597 13.19520068 1.19164008 17.83399125 -1 23 C-1.66 23 -2.32 23 -3 23 C-4.31239283 17.15388647 -3.40889469 14.37368816 -1 9 C-0.47851507 6.00983414 -0.19908605 3.02748096 0 0 Z " fill="#ED8241" transform="translate(383,256)"/>
<path d="M0 0 C0.66 0 1.32 0 2 0 C2.33 2.31 2.66 4.62 3 7 C3.66 7 4.32 7 5 7 C5.66 10.96 6.32 14.92 7 19 C6.01 19 5.02 19 4 19 C4 17.68 4 16.36 4 15 C3.01 14.67 2.02 14.34 1 14 C1.33 12.02 1.66 10.04 2 8 C1.34 8 0.68 8 0 8 C-0.38063221 5.6739143 -0.71269945 3.33944736 -1 1 C-0.67 0.67 -0.34 0.34 0 0 Z " fill="#E48245" transform="translate(75,264)"/>
<path d="M0 0 C0 0.66 0 1.32 0 2 C2.64 2.33 5.28 2.66 8 3 C8.33 3.99 8.66 4.98 9 6 C-4.81776765 5.40546697 -4.81776765 5.40546697 -10 2 C-6.5980513 -0.09350689 -3.94727588 -0.17942163 0 0 Z " fill="#EE8242" transform="translate(197,378)"/>
<path d="M0 0 C0.66 0.33 1.32 0.66 2 1 C-0.97 3.97 -3.94 6.94 -7 10 C-6.195625 11.6396875 -6.195625 11.6396875 -5.375 13.3125 C-4.92125 14.529375 -4.4675 15.74625 -4 17 C-4.66 17.99 -5.32 18.98 -6 20 C-7.98 18.35 -9.96 16.7 -12 15 C-11.58685438 10.55073948 -8.49538473 8.15899896 -5.4375 5.25 C-4.91736328 4.74339844 -4.39722656 4.23679688 -3.86132812 3.71484375 C-2.58089916 2.46965595 -1.29132446 1.23388498 0 0 Z " fill="#CD8453" transform="translate(171,209)"/>
<path d="M0 0 C2 2 2 2 3 5 C3.99 5.33 4.98 5.66 6 6 C6.33 6.66 6.66 7.32 7 8 C7.99 7.67 8.98 7.34 10 7 C12.1875 8.4375 12.1875 8.4375 14 10 C12.35 11.32 10.7 12.64 9 14 C5.04 10.04 1.08 6.08 -3 2 C-2.01 1.34 -1.02 0.68 0 0 Z " fill="#D18654" transform="translate(215,274)"/>
<path d="M0 0 C0.99 0 1.98 0 3 0 C5 7.625 5 7.625 5 11 C5.66 11 6.32 11 7 11 C7 12.65 7 14.3 7 16 C6.34 16 5.68 16 5 16 C4.34 14.02 3.68 12.04 3 10 C2.34 10 1.68 10 1 10 C0.63883954 8.5225254 0.28624952 7.04295325 -0.0625 5.5625 C-0.25972656 4.73878906 -0.45695312 3.91507813 -0.66015625 3.06640625 C-0.82837891 2.04353516 -0.82837891 2.04353516 -1 1 C-0.67 0.67 -0.34 0.34 0 0 Z " fill="#EC813D" transform="translate(370,156)"/>
<path d="M0 0 C-2.97 1.65 -5.94 3.3 -9 5 C-7.02 5 -5.04 5 -3 5 C-5.5654594 7.5654594 -7.47686668 7.54046087 -11 8 C-11 7.34 -11 6.68 -11 6 C-11.59167969 6.144375 -12.18335938 6.28875 -12.79296875 6.4375 C-16.92529941 7.40822694 -20.7229762 8.27593702 -25 8 C-20.59542217 5.72144675 -16.01650588 4.04094137 -11.375 2.3125 C-10.50359375 1.97927734 -9.6321875 1.64605469 -8.734375 1.30273438 C-7.48527344 0.83770508 -7.48527344 0.83770508 -6.2109375 0.36328125 C-5.45087402 0.07751221 -4.69081055 -0.20825684 -3.90771484 -0.50268555 C-2 -1 -2 -1 0 0 Z " fill="#DE8653" transform="translate(295,369)"/>
<path d="M0 0 C2.475 0.99 2.475 0.99 5 2 C5 2.66 5 3.32 5 4 C7.33214148 5.20628008 9.49642139 6.1654738 12 7 C11.67 5.68 11.34 4.36 11 3 C12.81618856 4.11903546 14.62785526 5.24541284 16.4375 6.375 C17.44683594 7.00148438 18.45617187 7.62796875 19.49609375 8.2734375 C22 10 22 10 23 12 C20.0625 11.625 20.0625 11.625 17 11 C16.67 10.34 16.34 9.68 16 9 C15.01 8.67 14.02 8.34 13 8 C12.67 8.99 12.34 9.98 12 11 C10.18401175 9.54601271 8.37230481 8.08667675 6.5625 6.625 C5.04849609 5.40683594 5.04849609 5.40683594 3.50390625 4.1640625 C1 2 1 2 0 0 Z " fill="#DE834D" transform="translate(123,347)"/>
<path d="M0 0 C-5.72731388 2.54547283 -11.83688166 2.6273833 -18 2 C-18.66 1.34 -19.32 0.68 -20 0 C-6.07594937 -4.05063291 -6.07594937 -4.05063291 0 0 Z " fill="#ED7F3A" transform="translate(208,75)"/>
<path d="M0 0 C1.9375 0.6875 1.9375 0.6875 4 2 C5.02055289 5.62296276 5.1076402 9.06586371 5.0625 12.8125 C5.05347656 13.78832031 5.04445313 14.76414063 5.03515625 15.76953125 C5.02355469 16.50558594 5.01195312 17.24164063 5 18 C4.34 18 3.68 18 3 18 C2.49897155 15.18767959 1.99912869 12.37515761 1.5 9.5625 C1.28537109 8.35883789 1.28537109 8.35883789 1.06640625 7.13085938 C0 1.11328125 0 1.11328125 0 0 Z " fill="#EF7F3B" transform="translate(380,183)"/>
<path d="M0 0 C0.33 0.66 0.66 1.32 1 2 C-1.31 3.32 -3.62 4.64 -6 6 C-4.68 6.66 -3.36 7.32 -2 8 C-4.64 9.65 -7.28 11.3 -10 13 C-9.67 11.68 -9.34 10.36 -9 9 C-10.98 9.66 -12.96 10.32 -15 11 C-10.70024145 6.12694031 -5.62775683 3.1799558 0 0 Z " fill="#DF844D" transform="translate(147,91)"/>
<path d="M0 0 C0.66 0.33 1.32 0.66 2 1 C1.43697042 4.94120709 0.3208055 7.7508723 -2 11 C-2.66 11 -3.32 11 -4 11 C-5.25 4.375 -5.25 4.375 -3 1 C-2.01 0.67 -1.02 0.34 0 0 Z " fill="#EA8340" transform="translate(99,137)"/>
<path d="M0 0 C0.66 0.66 1.32 1.32 2 2 C1.625 4.125 1.625 4.125 1 6 C0.34 6 -0.32 6 -1 6 C-1.33 6.99 -1.66 7.98 -2 9 C-2.7425 9.12375 -3.485 9.2475 -4.25 9.375 C-6.81448542 9.9578376 -8.69166512 10.78664449 -11 12 C-7.49102731 7.81576108 -3.91939465 3.80411834 0 0 Z " fill="#CD7E48" transform="translate(201,180)"/>
<path d="M0 0 C0.99773437 0.02320312 1.99546875 0.04640625 3.0234375 0.0703125 C4.52777344 0.09738281 4.52777344 0.09738281 6.0625 0.125 C6.83335937 0.14820312 7.60421875 0.17140625 8.3984375 0.1953125 C8.3984375 0.8553125 8.3984375 1.5153125 8.3984375 2.1953125 C10.0484375 2.5253125 11.6984375 2.8553125 13.3984375 3.1953125 C12.0784375 4.1853125 10.7584375 5.1753125 9.3984375 6.1953125 C9.3984375 5.5353125 9.3984375 4.8753125 9.3984375 4.1953125 C4.7784375 3.5353125 0.1584375 2.8753125 -4.6015625 2.1953125 C-2.6015625 0.1953125 -2.6015625 0.1953125 0 0 Z " fill="#F28137" transform="translate(255.6015625,72.8046875)"/>
<path d="M0 0 C-0.33 1.98 -0.66 3.96 -1 6 C-1.99 6 -2.98 6 -4 6 C-4.33 8.97 -4.66 11.94 -5 15 C-5.66 14.67 -6.32 14.34 -7 14 C-6.88490339 12.58249437 -6.75746342 11.16598831 -6.625 9.75 C-6.55539063 8.96109375 -6.48578125 8.1721875 -6.4140625 7.359375 C-5.9787895 4.87914019 -5.31630309 3.14017625 -4 1 C-2 0 -2 0 0 0 Z " fill="#EF8240" transform="translate(92,149)"/>
<path d="M0 0 C0.33 0 0.66 0 1 0 C1.02684679 2.64590014 1.04676357 5.29153096 1.0625 7.9375 C1.07087891 8.69224609 1.07925781 9.44699219 1.08789062 10.22460938 C1.09652441 12.14994313 1.05224333 14.07535581 1 16 C0.67 16.33 0.34 16.66 0 17 C-0.3931648 18.67884238 -0.74085452 20.36850045 -1.0625 22.0625 C-1.23910156 22.98160156 -1.41570312 23.90070313 -1.59765625 24.84765625 C-1.73042969 25.55792969 -1.86320312 26.26820313 -2 27 C-3.08130697 23.64207546 -2.92420653 21.05428704 -2.44140625 17.578125 C-2.30283203 16.55332031 -2.16425781 15.52851563 -2.02148438 14.47265625 C-1.87001953 13.40917969 -1.71855469 12.34570312 -1.5625 11.25 C-1.41490234 10.17105469 -1.26730469 9.09210938 -1.11523438 7.98046875 C-0.75020795 5.31930834 -0.37822581 2.65931106 0 0 Z " fill="#FDE8D1" transform="translate(390,233)"/>
<path d="M0 0 C2.475 0.99 2.475 0.99 5 2 C4.01 2.33 3.02 2.66 2 3 C2 3.99 2 4.98 2 6 C-1.6441774 8.4294516 -3.71241272 8.16179575 -8 8 C-5.47211993 5.20127563 -3.79588866 3.54226981 0 3 C0 2.01 0 1.02 0 0 Z " fill="#ED7E39" transform="translate(148,90)"/>
<path d="M0 0 C1 2 1 2 0.875 3.9375 C-0.35175277 6.82913153 -2.33683086 7.41478027 -5 9 C-6.80796103 11.56610666 -6.80796103 11.56610666 -8 14 C-7.01 14.33 -6.02 14.66 -5 15 C-5.99 15.66 -6.98 16.32 -8 17 C-8.99 16.01 -9.98 15.02 -11 14 C-9.42219077 10.28954753 -7.09296752 7.70093616 -4.375 4.75 C-3.55773437 3.85796875 -2.74046875 2.9659375 -1.8984375 2.046875 C-1.27195312 1.37140625 -0.64546875 0.6959375 0 0 Z " fill="#E28A54" transform="translate(113,117)"/>
<path d="M0 0 C0.99 0.33 1.98 0.66 3 1 C2.67 3.31 2.34 5.62 2 8 C1.34 8 0.68 8 0 8 C0 10.31 0 12.62 0 15 C-0.66 15 -1.32 15 -2 15 C-2.22577402 9.5814234 -1.46670113 5.22512279 0 0 Z " fill="#F37E3B" transform="translate(75,184)"/>
<path d="M0 0 C3.58790575 0.29899215 4.78166776 0.76986601 7.3125 3.4375 C9 6 9 6 9 8 C5.19985035 7.45712148 3.46103687 5.88535357 1 3 C0.67 2.01 0.34 1.02 0 0 Z " fill="#EA7E3D" transform="translate(126,346)"/>
<path d="M0 0 C2.31 0.33 4.62 0.66 7 1 C7 1.66 7 2.32 7 3 C6.01 3.33 5.02 3.66 4 4 C6.475 4.99 6.475 4.99 9 6 C4.99799622 7.60080151 1.95443764 6.29279692 -2 5 C-2 4.34 -2 3.68 -2 3 C-1.01 2.67 -0.02 2.34 1 2 C0.67 1.34 0.34 0.68 0 0 Z " fill="#E58C55" transform="translate(184,376)"/>
<path d="M0 0 C0.33 0 0.66 0 1 0 C1 1.65 1 3.3 1 5 C1.66 5 2.32 5 3 5 C3 3.35 3 1.7 3 0 C3.66 0.33 4.32 0.66 5 1 C4.49701212 5.40114397 2.91227269 7.71195019 0 11 C0 9.35 0 7.7 0 6 C-0.66 6 -1.32 6 -2 6 C-1.34 4.02 -0.68 2.04 0 0 Z " fill="#E2824A" transform="translate(368,296)"/>
<path d="M0 0 C2.66666667 2.66666667 5.33333333 5.33333333 8 8 C7.34 9.32 6.68 10.64 6 12 C4.99157547 10.56839732 3.99352109 9.12948547 3 7.6875 C2.1646875 6.48673828 2.1646875 6.48673828 1.3125 5.26171875 C0 3 0 3 0 0 Z " fill="#F17F3A" transform="translate(353,130)"/>
<path d="M0 0 C3.40218955 1.45808124 4.95297781 4.02020714 7.1875 6.9375 C6.8575 7.5975 6.5275 8.2575 6.1875 8.9375 C4.2075 6.6275 2.2275 4.3175 0.1875 1.9375 C0.5175 3.9175 0.8475 5.8975 1.1875 7.9375 C-0.52134005 6.31410195 -2.18696717 4.64430947 -3.8125 2.9375 C-3.8125 2.2775 -3.8125 1.6175 -3.8125 0.9375 C-1.8125 -0.0625 -1.8125 -0.0625 0 0 Z " fill="#DF8750" transform="translate(353.8125,129.0625)"/>
<path d="M0 0 C6.63141145 -0.54133971 10.54143747 0.10102677 16 4 C16.99 5.485 16.99 5.485 18 7 C17.46375 6.690625 16.9275 6.38125 16.375 6.0625 C13.6015043 4.82172561 10.99957163 4.4090325 8 4 C8 3.01 8 2.02 8 1 C5.36 1 2.72 1 0 1 C0 0.67 0 0.34 0 0 Z " fill="#C17D51" transform="translate(248,136)"/>
<path d="M0 0 C1.12894876 0.93274109 2.25300876 1.87140122 3.375 2.8125 C4.00148438 3.33457031 4.62796875 3.85664063 5.2734375 4.39453125 C7 6 7 6 9 9 C7.65686601 8.35330586 6.32608822 7.68096422 5 7 C4.0925 6.54625 3.185 6.0925 2.25 5.625 C1.5075 5.08875 0.765 4.5525 0 4 C0 2.68 0 1.36 0 0 Z M-2 4 C-1.01 4.33 -0.02 4.66 1 5 C1 5.66 1 6.32 1 7 C1.66 7.33 2.32 7.66 3 8 C2.01 8 1.02 8 0 8 C-0.66 6.68 -1.32 5.36 -2 4 Z " fill="#DE864E" transform="translate(108,326)"/>
<path d="M0 0 C0.66 0.33 1.32 0.66 2 1 C2.484375 3.21484375 2.484375 3.21484375 2.75 5.9375 C2.84796875 6.83339844 2.9459375 7.72929687 3.046875 8.65234375 C3 11 3 11 1 13 C1 11.02 1 9.04 1 7 C0.34 7 -0.32 7 -1 7 C-1.04254356 5.00045254 -1.04080783 2.99958364 -1 1 C-0.67 0.67 -0.34 0.34 0 0 Z " fill="#F07E39" transform="translate(72,249)"/>
<path d="M0 0 C0.33 0.99 0.66 1.98 1 3 C1.66 3 2.32 3 3 3 C2.67 3.99 2.34 4.98 2 6 C0.25 6.5625 0.25 6.5625 -2 7 C-3.6744239 7.6469365 -5.34302621 8.30959426 -7 9 C-5.44499019 5.18315774 -2.96404505 2.80804268 0 0 Z " fill="#C7854B" transform="translate(181,199)"/>
<path d="M0 0 C2.4375 0.375 2.4375 0.375 5 1 C5.33 1.66 5.66 2.32 6 3 C2.21812119 4.83691257 0.05431692 5.15837626 -4 4 C-4 3.34 -4 2.68 -4 2 C-2.68 2 -1.36 2 0 2 C0 1.34 0 0.68 0 0 Z " fill="#E97F3A" transform="translate(165,83)"/>
<path d="M0 0 C-0.99 0.33 -1.98 0.66 -3 1 C-3 1.66 -3 2.32 -3 3 C-6.37097383 4.49821059 -8.20442119 5 -12 5 C-11 2 -11 2 -7.6875 0.25 C-3.02436902 -1.33072237 -3.02436902 -1.33072237 0 0 Z " fill="#F37D36" transform="translate(306,366)"/>
<path d="M0 0 C-2.95074112 1.56779517 -5.87119234 2.70074575 -9.0625 3.6875 C-9.91972656 3.95949219 -10.77695313 4.23148437 -11.66015625 4.51171875 C-14 5 -14 5 -17 4 C-15.68 3.67 -14.36 3.34 -13 3 C-13 2.34 -13 1.68 -13 1 C-8.20862412 -0.6290678 -4.94367454 -1.20577428 0 0 Z " fill="#D87E4D" transform="translate(193,78)"/>
<path d="M0 0 C0.66 0.99 1.32 1.98 2 3 C0.68 4.32 -0.64 5.64 -2 7 C-3.32 6.34 -4.64 5.68 -6 5 C-3.375 1.125 -3.375 1.125 0 0 Z " fill="#F08443" transform="translate(346,333)"/>
<path d="M0 0 C0.33 0 0.66 0 1 0 C1.61669998 6.90703976 0.11242982 10.47759424 -4 16 C-4 13 -4 10 -4 7 C-2.68 7 -1.36 7 0 7 C0 4.69 0 2.38 0 0 Z " fill="#C47F4E" transform="translate(311,191)"/>
<path d="M0 0 C0.66 0.33 1.32 0.66 2 1 C1.67 3.97 1.34 6.94 1 10 C0.01 10 -0.98 10 -2 10 C-2.25 3.375 -2.25 3.375 0 0 Z " fill="#EE7F39" transform="translate(79,173)"/>
<path d="M0 0 C1.32 0.33 2.64 0.66 4 1 C4 1.66 4 2.32 4 3 C5.65 3.33 7.3 3.66 9 4 C9 4.66 9 5.32 9 6 C2.25 5.25 2.25 5.25 0 3 C0 2.01 0 1.02 0 0 Z " fill="#F27F3A" transform="translate(136,355)"/>
<path d="M0 0 C1.5 1 1.5 1 3 3 C3.27345479 5.71846235 3.13491285 8.25677199 3 11 C1.68 11 0.36 11 -1 11 C-0.9278125 10.37351563 -0.855625 9.74703125 -0.78125 9.1015625 C-0.6884375 8.28429687 -0.595625 7.46703125 -0.5 6.625 C-0.4071875 5.81289062 -0.314375 5.00078125 -0.21875 4.1640625 C0.03352351 2.03087175 0.03352351 2.03087175 0 0 Z " fill="#CE7D47" transform="translate(308,185)"/>
<path d="M0 0 C0.33 0.66 0.66 1.32 1 2 C0.34 2 -0.32 2 -1 2 C-1 2.66 -1 3.32 -1 4 C-4.41831915 6.5393228 -6.75776898 7.3636198 -11 7 C-7.54319097 4.23455278 -3.85658398 2.15078722 0 0 Z " fill="#414142" transform="translate(324,375)"/>
<path d="M0 0 C0.66 0.66 1.32 1.32 2 2 C-0.97 4.97 -3.94 7.94 -7 11 C-7 7.22089522 -6.00296038 6.53893899 -3.5 3.8125 C-2.8503125 3.09707031 -2.200625 2.38164062 -1.53125 1.64453125 C-1.0259375 1.10183594 -0.520625 0.55914062 0 0 Z " fill="#F6F5F5" transform="translate(138,241)"/>
<path d="M0 0 C3.37462715 0.54723683 5.08235 1.0549 8 3 C7.67 4.32 7.34 5.64 7 7 C5.83040013 6.02433888 4.66438823 5.044375 3.5 4.0625 C2.8503125 3.51722656 2.200625 2.97195312 1.53125 2.41015625 C1.0259375 1.94480469 0.520625 1.47945313 0 1 C0 0.67 0 0.34 0 0 Z " fill="#FEEDD7" transform="translate(334,107)"/>
<path d="M0 0 C2.97 0.33 5.94 0.66 9 1 C6.62216162 3.37783838 5.27926335 3.59009208 2 4 C1.34 3.67 0.68 3.34 0 3 C0 2.01 0 1.02 0 0 Z " fill="#EC803B" transform="translate(178,376)"/>
<path d="M0 0 C0.33 0.66 0.66 1.32 1 2 C-4 8.57142857 -4 8.57142857 -9 10 C-8.06409496 8.8944811 -7.12620142 7.79064547 -6.1875 6.6875 C-5.66542969 6.07261719 -5.14335937 5.45773437 -4.60546875 4.82421875 C-3.12827531 3.14575321 -1.59960869 1.56117966 0 0 Z " fill="#FEF2E1" transform="translate(347,336)"/>
<path d="M0 0 C2.31 0 4.62 0 7 0 C7 0.66 7 1.32 7 2 C7.804375 2.12375 8.60875 2.2475 9.4375 2.375 C10.7059375 2.684375 10.7059375 2.684375 12 3 C12.33 3.66 12.66 4.32 13 5 C11.20620902 4.55005243 9.41501072 4.08975857 7.625 3.625 C6.62726563 3.36976562 5.62953125 3.11453125 4.6015625 2.8515625 C2 2 2 2 0 0 Z " fill="#FDE8D5" transform="translate(281,77)"/>
<path d="M0 0 C2.475 0.495 2.475 0.495 5 1 C5 2.65 5 4.3 5 6 C3.68 5.67 2.36 5.34 1 5 C0.67 3.35 0.34 1.7 0 0 Z " fill="#E9803D" transform="translate(94,311)"/>
<path d="M0 0 C0.66 0 1.32 0 2 0 C2 1.65 2 3.3 2 5 C0.35 5.33 -1.3 5.66 -3 6 C-2.42655063 3.13275314 -2.1385485 2.1385485 0 0 Z " fill="#EF7739" transform="translate(108,125)"/>
<path d="M0 0 C-0.6875 2.4375 -0.6875 2.4375 -2 5 C-4.625 5.8125 -4.625 5.8125 -7 6 C-7 5.01 -7 4.02 -7 3 C-4.46815512 0.64276511 -3.52809907 0 0 0 Z " fill="#F27F35" transform="translate(139,99)"/>
<path d="M0 0 C1.65 0 3.3 0 5 0 C5 0.66 5 1.32 5 2 C5.66 2 6.32 2 7 2 C7 2.66 7 3.32 7 4 C5.02 4 3.04 4 1 4 C0.67 2.68 0.34 1.36 0 0 Z " fill="#EE7E3A" transform="translate(294,85)"/>
<path d="M0 0 C4.455 0.99 4.455 0.99 9 2 C9 2.33 9 2.66 9 3 C7.02 3 5.04 3 3 3 C3 3.99 3 4.98 3 6 C1.68 5.34 0.36 4.68 -1 4 C-0.01 4 0.98 4 2 4 C1.34 2.68 0.68 1.36 0 0 Z " fill="#E08A55" transform="translate(175,373)"/>
<path d="M0 0 C1.2065625 0.0309375 1.2065625 0.0309375 2.4375 0.0625 C3.0975 1.3825 3.7575 2.7025 4.4375 4.0625 C2.7875 4.0625 1.1375 4.0625 -0.5625 4.0625 C-0.5625 3.4025 -0.5625 2.7425 -0.5625 2.0625 C-1.5525 1.7325 -2.5425 1.4025 -3.5625 1.0625 C-2.5625 0.0625 -2.5625 0.0625 0 0 Z " fill="#EF7E36" transform="translate(172.5625,372.9375)"/>
<path d="M0 0 C6.625 0.75 6.625 0.75 10 3 C6.37 3 2.74 3 -1 3 C-0.67 2.01 -0.34 1.02 0 0 Z " fill="#E68346" transform="translate(165,370)"/>
<path d="M0 0 C0 3.3 0 6.6 0 10 C-0.66 10 -1.32 10 -2 10 C-2 8.02 -2 6.04 -2 4 C-2.66 3.67 -3.32 3.34 -4 3 C-1.125 0 -1.125 0 0 0 Z " fill="#F28639" transform="translate(387,243)"/>
<path d="M0 0 C1.9375 0.6875 1.9375 0.6875 4 2 C4.75 4.625 4.75 4.625 5 7 C4.01 7.33 3.02 7.66 2 8 C0.74335022 5.09399739 0 3.20395416 0 0 Z " fill="#F47D3B" transform="translate(89,302)"/>
<path d="M0 0 C0.66 0 1.32 0 2 0 C3.42944945 2.35438733 4.08661261 3.48032433 3.625 6.25 C3.41875 6.8275 3.2125 7.405 3 8 C2.67 7.34 2.34 6.68 2 6 C1.34 6 0.68 6 0 6 C0 4.02 0 2.04 0 0 Z " fill="#EF7E39" transform="translate(81,284)"/>
<path d="M0 0 C2.475 0.495 2.475 0.495 5 1 C5.33 2.98 5.66 4.96 6 7 C1.125 2.25 1.125 2.25 0 0 Z " fill="#FDEAD3" transform="translate(351,124)"/>
<path d="M0 0 C2.31 0 4.62 0 7 0 C7.33 0.99 7.66 1.98 8 3 C6 4 6 4 3.4375 3.1875 C1 2 1 2 0 0 Z " fill="#F07F3B" transform="translate(271,77)"/>
<path d="M0 0 C0 0.66 0 1.32 0 2 C-4.43076923 4.09230769 -4.43076923 4.09230769 -7.3125 3.625 C-7.869375 3.41875 -8.42625 3.2125 -9 3 C-5.92807025 0.26939578 -4.09590633 -0.34132553 0 0 Z " fill="#E67E41" transform="translate(327,351)"/>
<path d="M0 0 C2.78388975 1.70625501 3.85384206 2.47626739 4.75 5.6875 C4.8325 6.450625 4.915 7.21375 5 8 C4.01 8 3.02 8 2 8 C2 6.68 2 5.36 2 4 C1.34 4 0.68 4 0 4 C0 2.68 0 1.36 0 0 Z " fill="#F27D38" transform="translate(77,275)"/>
<path d="M0 0 C0.66 0 1.32 0 2 0 C2 2.64 2 5.28 2 8 C1.34 8 0.68 8 0 8 C-0.38063221 5.6739143 -0.71269945 3.33944736 -1 1 C-0.67 0.67 -0.34 0.34 0 0 Z " fill="#F17F36" transform="translate(75,264)"/>
<path d="M0 0 C2.31 1.98 4.62 3.96 7 6 C4.50907189 7.24546405 3.58919267 6.7767578 1 6 C0.67 4.02 0.34 2.04 0 0 Z " fill="#C6804F" transform="translate(266,143)"/>
<path d="M0 0 C0.99 0 1.98 0 3 0 C3 1.65 3 3.3 3 5 C1.35 5 -0.3 5 -2 5 C-1.34 3.35 -0.68 1.7 0 0 Z " fill="#F07F39" transform="translate(114,117)"/>
<path d="M0 0 C0 0.99 0 1.98 0 3 C0.94978897 5.15028304 0.94978897 5.15028304 2 7 C1.01 7.66 0.02 8.32 -1 9 C-1 7.68 -1 6.36 -1 5 C-1.99 4.67 -2.98 4.34 -4 4 C-2.68 2.68 -1.36 1.36 0 0 Z " fill="#E48953" transform="translate(118,112)"/>
<path d="M0 0 C0.99 0.33 1.98 0.66 3 1 C-1.75 5.875 -1.75 5.875 -4 7 C-4 5.68 -4 4.36 -4 3 C-3.01 3 -2.02 3 -1 3 C-0.67 2.01 -0.34 1.02 0 0 Z " fill="#DD7B3F" transform="translate(127,108)"/>
<path d="M0 0 C0.66 0.33 1.32 0.66 2 1 C0.68 2.65 -0.64 4.3 -2 6 C-3.32 5.67 -4.64 5.34 -6 5 C-4.02 3.35 -2.04 1.7 0 0 Z " fill="#FDEAD7" transform="translate(329,352)"/>
<path d="M0 0 C2.475 0.99 2.475 0.99 5 2 C5 2.66 5 3.32 5 4 C6.32 4.66 7.64 5.32 9 6 C8.67 6.66 8.34 7.32 8 8 C6.66372225 6.85760183 5.33104612 5.71098945 4 4.5625 C3.2575 3.92441406 2.515 3.28632813 1.75 2.62890625 C1.1725 2.09136719 0.595 1.55382812 0 1 C0 0.67 0 0.34 0 0 Z " fill="#E18A55" transform="translate(123,347)"/>
<path d="M0 0 C1.9375 0.8125 1.9375 0.8125 4 2 C4.33 2.99 4.66 3.98 5 5 C2.03 4.505 2.03 4.505 -1 4 C-0.67 2.68 -0.34 1.36 0 0 Z " fill="#F07E38" transform="translate(118,338)"/>
<path d="M0 0 C1.5 1.375 1.5 1.375 3 3 C3 3.66 3 4.32 3 5 C1.02 5.99 1.02 5.99 -1 7 C-1.625 5.1875 -1.625 5.1875 -2 3 C-1.34 2.01 -0.68 1.02 0 0 Z " fill="#EE7032" transform="translate(360,310)"/>
<path d="M0 0 C0.66 0 1.32 0 2 0 C2 1.32 2 2.64 2 4 C1.34 4 0.68 4 0 4 C0 5.65 0 7.3 0 9 C-0.66 8.67 -1.32 8.34 -2 8 C-1.125 2.25 -1.125 2.25 0 0 Z " fill="#F17F33" transform="translate(375,284)"/>
<path d="M0 0 C2.31 1.98 4.62 3.96 7 6 C5 7 5 7 2.9375 6.375 C1 5 1 5 0.25 2.375 C0.1675 1.59125 0.085 0.8075 0 0 Z " fill="#EA925C" transform="translate(342,115)"/>
<path d="M0 0 C3 1 3 1 4.1875 3.0625 C4.455625 3.701875 4.72375 4.34125 5 5 C2.97954558 4.39816251 0.97888961 3.72693904 -1 3 C-1.33 2.34 -1.66 1.68 -2 1 C-1.34 0.67 -0.68 0.34 0 0 Z " fill="#E99058" transform="translate(167,372)"/>
<path d="M0 0 C0.99 0.33 1.98 0.66 3 1 C0.03 3.475 0.03 3.475 -3 6 C-3.66 5.67 -4.32 5.34 -5 5 C-3.35 3.35 -1.7 1.7 0 0 Z " fill="#454545" transform="translate(356,348)"/>
<path d="M0 0 C1.98 0.495 1.98 0.495 4 1 C2.35 2.65 0.7 4.3 -1 6 C-0.67 4.02 -0.34 2.04 0 0 Z " fill="#CB7F4A" transform="translate(235,272)"/>
<path d="M0 0 C1.65 0 3.3 0 5 0 C3.35 1.65 1.7 3.3 0 5 C-0.33 4.01 -0.66 3.02 -1 2 C-0.67 1.34 -0.34 0.68 0 0 Z " fill="#CD7E4B" transform="translate(251,256)"/>
<path d="M0 0 C2.38564077 0.57584432 4.66682784 1.22227595 7 2 C6.67 2.99 6.34 3.98 6 5 C2.83884224 3.63016497 2.0072908 3.0109362 0 0 Z " fill="#F37E3C" transform="translate(332,110)"/>
<path d="M0 0 C3.53600465 1.91135386 5.78972846 3.62642766 8 7 C6.02 6.34 4.04 5.68 2 5 C2 4.01 2 3.02 2 2 C1.34 2 0.68 2 0 2 C0 1.34 0 0.68 0 0 Z " fill="#DF8751" transform="translate(330,105)"/>
</svg>
