<?xml version="1.0" encoding="UTF-8"?>
<svg version="1.1" xmlns="http://www.w3.org/2000/svg" width="256" height="256">
<path d="M0 0 C84.48 0 168.96 0 256 0 C256 84.48 256 168.96 256 256 C171.52 256 87.04 256 0 256 C0 171.52 0 87.04 0 0 Z " fill="#FEFEFE" transform="translate(0,0)"/>
<path d="M0 0 C4.31672366 1.48992157 6.92187677 4.45350407 10.10668945 7.6472168 C11.12819344 8.6558654 11.12819344 8.6558654 12.17033386 9.68489075 C13.60497268 11.10805797 15.03441816 12.53647691 16.45898438 13.96972656 C18.64203693 16.15910469 20.85038018 18.32049191 23.06176758 20.48120117 C24.4533616 21.86824957 25.84339021 23.25687066 27.23168945 24.6472168 C28.22529228 25.61319038 28.22529228 25.61319038 29.2389679 26.59867859 C31.93112594 29.34631638 33.62432218 31.2205736 34.67431641 34.96337891 C33.38354226 39.61340313 30.43653727 42.2371633 27.0480957 45.56518555 C26.35205231 46.2669693 25.65600891 46.96875305 24.93887329 47.69180298 C23.46491144 49.16984331 21.98336302 50.64035129 20.49487305 52.10375977 C18.22006262 54.34645522 15.97900773 56.61932793 13.73950195 58.8972168 C12.30261971 60.33013412 10.86387731 61.76118905 9.4230957 63.19018555 C8.75410248 63.87132416 8.08510925 64.55246277 7.39584351 65.25424194 C2.66730758 69.84308854 2.66730758 69.84308854 -1.51196289 70.52856445 C-4.1628418 69.97924805 -4.1628418 69.97924805 -6.1628418 67.97924805 C-6.64331055 65.24633789 -6.64331055 65.24633789 -6.1628418 61.97924805 C-4.32701864 59.61949418 -2.62359806 57.73709046 -0.4753418 55.70581055 C0.10175537 55.13720306 0.67885254 54.56859558 1.2734375 53.98275757 C3.11437943 52.17532068 4.97509229 50.38988947 6.8371582 48.60424805 C8.091126 47.38038325 9.34374727 46.15513718 10.5949707 44.9284668 C13.66032316 41.92916011 16.74357507 38.94941696 19.8371582 35.97924805 C18.27183982 32.14053066 15.85270711 29.84971712 12.86450195 27.0222168 C11.87238589 26.06513496 10.88086763 25.10743312 9.88989258 24.14916992 C8.33366914 22.65479293 6.77341212 21.16557548 5.20214844 19.68701172 C3.67994988 18.24992431 2.17768586 16.79421351 0.67700195 15.3347168 C-0.22671143 14.47515381 -1.1304248 13.61559082 -2.06152344 12.72998047 C-4.60021863 9.40669957 -5.00276503 7.12004389 -5.1628418 2.97924805 C-3.70700077 0.39108621 -2.96105786 -0.02841065 0 0 Z " fill="#535353" transform="translate(190.162841796875,90.020751953125)"/>
<path d="M0 0 C2.61572266 0.95336914 2.61572266 0.95336914 3.61572266 1.95336914 C4.00634766 4.65112305 4.00634766 4.65112305 3.61572266 7.95336914 C1.91851031 10.17531802 0.37526122 11.89830957 -1.63427734 13.78930664 C-2.16698242 14.31352203 -2.6996875 14.83773743 -3.24853516 15.37783813 C-4.94684996 17.04266794 -6.6648441 18.68538721 -8.38427734 20.32836914 C-9.54189097 21.45587704 -10.69815796 22.58476931 -11.85302734 23.71508789 C-14.68142423 26.47746607 -17.52765357 29.22020318 -20.38427734 31.95336914 C-18.79864974 35.91426574 -16.20789715 38.24122791 -13.12255859 41.12915039 C-12.07545783 42.13149044 -11.02926063 43.13477511 -9.98388672 44.13891602 C-8.33990279 45.70863171 -6.69095511 47.27127799 -5.02563477 48.81835938 C-3.4144463 50.32043586 -1.82996686 51.84685861 -0.24755859 53.37915039 C0.70852295 54.28060791 1.66460449 55.18206543 2.6496582 56.11083984 C4.61572266 58.95336914 4.61572266 58.95336914 4.41967773 62.80175781 C4.02171997 64.36180542 4.02171997 64.36180542 3.61572266 65.95336914 C1.07617188 66.85791016 1.07617188 66.85791016 -2.38427734 66.95336914 C-5.22531711 65.20142951 -7.43162985 62.86258994 -9.75146484 60.48071289 C-10.43105255 59.80545059 -11.11064026 59.13018829 -11.81082153 58.4344635 C-13.24293897 57.00272739 -14.66634232 55.56222933 -16.08154297 54.11376953 C-18.24990466 51.90043622 -20.45072266 49.72381144 -22.65771484 47.54907227 C-24.04521351 46.15335246 -25.43070058 44.75562942 -26.81396484 43.35571289 C-27.47322968 42.70545639 -28.13249451 42.05519989 -28.81173706 41.38523865 C-31.49849252 38.59954957 -33.17913721 36.71886184 -34.19189453 32.93969727 C-32.97930214 28.45589129 -30.28913193 25.98016911 -27.03271484 22.76977539 C-26.38106354 22.11001205 -25.72941223 21.45024872 -25.05801392 20.77049255 C-23.67830887 19.38233487 -22.29091674 18.00178105 -20.89648438 16.62841797 C-18.76460075 14.52113113 -16.66965754 12.38145678 -14.57568359 10.23657227 C-13.23011887 8.89137795 -11.8825277 7.54820695 -10.53271484 6.20727539 C-9.90746918 5.56472305 -9.28222351 4.92217072 -8.63803101 4.26014709 C-4.180372 -0.05759999 -4.180372 -0.05759999 0 0 Z " fill="#4E4E4E" transform="translate(67.38427734375,92.046630859375)"/>
<path d="M0 0 C1.32 0.66 2.64 1.32 4 2 C3.67 4.31 3.34 6.62 3 9 C0.25 9.75 0.25 9.75 -3 10 C-5.375 8.0625 -5.375 8.0625 -7 6 C-6.67 5.34 -6.34 4.68 -6 4 C-5.34 4.33 -4.68 4.66 -4 5 C-4 5.66 -4 6.32 -4 7 C-1.9375006 5.18777466 -1.9375006 5.18777466 0 3 C0 2.01 0 1.02 0 0 Z " fill="#555555" transform="translate(68,149)"/>
<path d="M0 0 C1.485 0.99 1.485 0.99 3 2 C3.1875 5.125 3.1875 5.125 3 8 C2.01 8.495 2.01 8.495 1 9 C0.29925156 5.846632 0 3.27275026 0 0 Z " fill="#5B5B5B" transform="translate(221,120)"/>
</svg>
